<?xml version="1.0" encoding="UTF-8" standalone="no"?>
<!-- Created with Inkscape (http://www.inkscape.org/) -->

<svg
   width="100"
   height="100"
   viewBox="0 0 25 25.000001"
   version="1.1"
   id="svg1"
   inkscape:export-filename="logo_config.svg"
   inkscape:export-xdpi="96"
   inkscape:export-ydpi="96"
   inkscape:version="1.3 (0e150ed6c4, 2023-07-21)"
   sodipodi:docname="logo_search.svg"
   xmlns:inkscape="http://www.inkscape.org/namespaces/inkscape"
   xmlns:sodipodi="http://sodipodi.sourceforge.net/DTD/sodipodi-0.dtd"
   xmlns="http://www.w3.org/2000/svg"
   xmlns:svg="http://www.w3.org/2000/svg">
  <sodipodi:namedview
     id="namedview1"
     pagecolor="#505050"
     bordercolor="#ffffff"
     borderopacity="1"
     inkscape:showpageshadow="false"
     inkscape:pageopacity="0"
     inkscape:pagecheckerboard="1"
     inkscape:deskcolor="#505050"
     inkscape:document-units="px"
     inkscape:zoom="5.6910695"
     inkscape:cx="35.845635"
     inkscape:cy="61.939148"
     inkscape:window-width="1920"
     inkscape:window-height="1051"
     inkscape:window-x="-9"
     inkscape:window-y="-9"
     inkscape:window-maximized="1"
     inkscape:current-layer="layer1"
     showgrid="false" />
  <defs
     id="defs1" />
  <g
     inkscape:label="Calque 1"
     inkscape:groupmode="layer"
     id="layer1">
    <rect
       style="font-variation-settings:normal;opacity:1;fill:#939393;fill-opacity:1;stroke:#000000;stroke-width:0.525;stroke-linecap:butt;stroke-linejoin:round;stroke-miterlimit:4;stroke-dasharray:none;stroke-dashoffset:0;stroke-opacity:1;paint-order:markers fill stroke"
       id="rect7"
       width="15.191785"
       height="1.5353284"
       x="18.16996"
       y="-0.85438311"
       transform="matrix(0.7021419,0.71203705,-0.71207516,0.70210325,0,0)" />
    <path
       d="M 8.5843762,1.8116069 A 6.7425321,6.742166 0 0 0 7.6247972,1.8802873 6.7425321,6.742166 0 0 0 6.6845563,2.0843285 6.7425321,6.742166 0 0 0 5.7836586,2.4210632 6.7425321,6.742166 0 0 0 4.9387753,2.8818231 6.7425321,6.742166 0 0 0 4.1692447,3.4579394 6.7425321,6.742166 0 0 0 3.4884034,4.1387436 6.7425321,6.742166 0 0 0 2.9122559,4.9082323 6.7425321,6.742166 0 0 0 2.451471,5.7530697 6.7425321,6.742166 0 0 0 2.1147181,6.6539185 6.7425321,6.742166 0 0 0 1.9106657,7.5941083 a 6.7425321,6.742166 0 0 0 -0.068685,0.9595273 6.7425321,6.742166 0 0 0 0.068685,0.9595271 6.7425321,6.742166 0 0 0 0.2040524,0.9401893 6.7425321,6.742166 0 0 0 0.3367529,0.900849 6.7425321,6.742166 0 0 0 0.4607849,0.844837 6.7425321,6.742166 0 0 0 0.5761475,0.76949 6.7425321,6.742166 0 0 0 0.6808413,0.680805 6.7425321,6.742166 0 0 0 0.7695306,0.576116 6.7425321,6.742166 0 0 0 0.8448833,0.460759 6.7425321,6.742166 0 0 0 0.9008977,0.336735 6.7425321,6.742166 0 0 0 0.9402409,0.204041 6.7425321,6.742166 0 0 0 0.959579,0.06868 6.7425321,6.742166 0 0 0 0.959579,-0.06868 6.7425321,6.742166 0 0 0 0.9402408,-0.204041 6.7425321,6.742166 0 0 0 0.900898,-0.336735 6.7425321,6.742166 0 0 0 0.844884,-0.460759 6.7425321,6.742166 0 0 0 0.76953,-0.576116 6.7425321,6.742166 0 0 0 0.680842,-0.680805 6.7425321,6.742166 0 0 0 0.576147,-0.76949 6.7425321,6.742166 0 0 0 0.460784,-0.844837 6.7425321,6.742166 0 0 0 0.336753,-0.900849 6.7425321,6.742166 0 0 0 0.204054,-0.9401893 6.7425321,6.742166 0 0 0 0.06868,-0.9595271 6.7425321,6.742166 0 0 0 -0.0081,-0.3307335 A 6.7425321,6.742166 0 0 0 15.294695,7.8928352 6.7425321,6.742166 0 0 0 15.254021,7.5641023 6.7425321,6.742166 0 0 0 15.197343,7.2380364 6.7425321,6.742166 0 0 0 15.124724,6.9153045 6.7425321,6.742166 0 0 0 15.036707,6.5965736 6.7425321,6.742166 0 0 0 14.932671,6.2825101 6.7425321,6.742166 0 0 0 14.813974,5.9737811 6.7425321,6.742166 0 0 0 14.679272,5.6710532 6.7425321,6.742166 0 0 0 14.530567,5.3756601 6.7425321,6.742166 0 0 0 14.367859,5.087602 6.7425321,6.742166 0 0 0 14.190481,4.8082121 6.7425321,6.742166 0 0 0 13.999764,4.5374907 6.7425321,6.742166 0 0 0 13.79638,4.2767716 6.7425321,6.742166 0 0 0 13.580324,4.0260541 6.7425321,6.742166 0 0 0 13.352265,3.7860057 6.7425321,6.742166 0 0 0 13.112204,3.5579597 6.7425321,6.742166 0 0 0 12.861472,3.341916 6.7425321,6.742166 0 0 0 12.600739,3.1385416 6.7425321,6.742166 0 0 0 12.330003,2.9478362 6.7425321,6.742166 0 0 0 12.050599,2.7704671 6.7425321,6.742166 0 0 0 11.762525,2.6077677 6.7425321,6.742166 0 0 0 11.467115,2.4590709 6.7425321,6.742166 0 0 0 11.164371,2.324377 6.7425321,6.742166 0 0 0 10.855625,2.2056864 6.7425321,6.742166 0 0 0 10.541545,2.1016654 6.7425321,6.742166 0 0 0 10.222797,2.0136477 6.7425321,6.742166 0 0 0 9.9000472,1.9409663 6.7425321,6.742166 0 0 0 9.5739635,1.8842882 6.7425321,6.742166 0 0 0 9.2452125,1.8436134 6.7425321,6.742166 0 0 0 8.9151274,1.8196084 a 6.7425321,6.742166 0 0 0 -0.3307512,-0.008 z m 0,1.7063446 a 5.0359577,5.0356842 0 0 1 0.2820729,0.00801 5.0359577,5.0356842 0 0 1 0.2820719,0.023338 5.0359577,5.0356842 0 0 1 0.2794045,0.040008 5.0359577,5.0356842 0 0 1 0.2767383,0.054678 5.0359577,5.0356842 0 0 1 0.27407,0.070681 5.0359577,5.0356842 0 0 1 0.2687352,0.086017 5.0359577,5.0356842 0 0 1 0.264068,0.1006869 5.0359577,5.0356842 0 0 1 0.258066,0.1153571 5.0359577,5.0356842 0 0 1 0.250732,0.12936 5.0359577,5.0356842 0 0 1 0.243395,0.1440293 5.0359577,5.0356842 0 0 1 0.234726,0.1566983 5.0359577,5.0356842 0 0 1 0.226059,0.1700343 5.0359577,5.0356842 0 0 1 0.215388,0.1820368 5.0359577,5.0356842 0 0 1 0.205386,0.1940391 5.0359577,5.0356842 0 0 1 0.19405,0.2053749 5.0359577,5.0356842 0 0 1 0.182047,0.2153768 5.0359577,5.0356842 0 0 1 0.170043,0.2260457 5.0359577,5.0356842 0 0 1 0.156708,0.2347142 5.0359577,5.0356842 0 0 1 0.144036,0.2433824 5.0359577,5.0356842 0 0 1 0.129371,0.2507173 5.0359577,5.0356842 0 0 1 0.115359,0.258052 5.0359577,5.0356842 0 0 1 0.100687,0.2640535 5.0359577,5.0356842 0 0 1 0.08601,0.2687209 5.0359577,5.0356842 0 0 1 0.07068,0.2740554 5.0359577,5.0356842 0 0 1 0.05468,0.2767227 5.0359577,5.0356842 0 0 1 0.04001,0.2793897 5.0359577,5.0356842 0 0 1 0.02334,0.282057 5.0359577,5.0356842 0 0 1 0.0081,0.282057 5.0359577,5.0356842 0 0 1 -0.06202,0.7874923 5.0359577,5.0356842 0 0 1 -0.184715,0.7688219 5.0359577,5.0356842 0 0 1 -0.302077,0.730148 5.0359577,5.0356842 0 0 1 -0.412772,0.67347 5.0359577,5.0356842 0 0 1 -0.513465,0.600786 5.0359577,5.0356842 0 0 1 -0.600821,0.513439 5.0359577,5.0356842 0 0 1 -0.673517,0.412748 5.0359577,5.0356842 0 0 1 -0.730254,0.302058 A 5.0359577,5.0356842 0 0 1 9.3718896,13.52731 5.0359577,5.0356842 0 0 1 8.5843544,13.58932 5.0359577,5.0356842 0 0 1 7.7968411,13.52731 5.0359577,5.0356842 0 0 1 7.0279779,13.342603 5.0359577,5.0356842 0 0 1 6.2977903,13.040542 5.0359577,5.0356842 0 0 1 5.6242843,12.627793 5.0359577,5.0356842 0 0 1 5.0234636,12.114355 5.0359577,5.0356842 0 0 1 4.5099987,11.513567 5.0359577,5.0356842 0 0 1 4.0972263,10.840098 5.0359577,5.0356842 0 0 1 3.7951488,10.10995 5.0359577,5.0356842 0 0 1 3.6104349,9.3411279 5.0359577,5.0356842 0 0 1 3.5484189,8.5536356 5.0359577,5.0356842 0 0 1 3.6104349,7.7661431 5.0359577,5.0356842 0 0 1 3.7951488,6.9973211 5.0359577,5.0356842 0 0 1 4.0972263,6.2671735 5.0359577,5.0356842 0 0 1 4.5099987,5.5937043 5.0359577,5.0356842 0 0 1 5.0234636,4.9929161 5.0359577,5.0356842 0 0 1 5.6242843,4.4794792 5.0359577,5.0356842 0 0 1 6.2977903,4.0667291 5.0359577,5.0356842 0 0 1 7.0279779,3.7646681 5.0359577,5.0356842 0 0 1 7.7968411,3.5799642 5.0359577,5.0356842 0 0 1 8.5843762,3.5179515 Z"
       style="opacity:1;fill:#939393;fill-opacity:1;stroke:#000000;stroke-width:0.525;stroke-linecap:butt;stroke-linejoin:round;stroke-dasharray:none;paint-order:markers fill stroke"
       id="path7" />
  </g>
</svg>
